# xmcd CD database file
#
# Track frame offsets:
#	150
#	16422
#	32710
#	51820
#	71707
#	86197
#	106110
#	120405
#	138925
#	153687
#	171590
#	190890
#	208185
#	224150
#	239292
#	258822
#
# Disc length: 3716 seconds
#
# Revision: 2
# Processed by: cddbd v1.5PL3 Copyright (c) Steve Scherf et al.
# Submitted via: CDex 1.51
#
DISCID=ed0e8210
DTITLE=研ナオコ - SUPER BEST
DYEAR=1986
DGENRE=Pop
TTITLE0=Tokyo見返り美人
TTITLE1=夏をあきらめて
TTITLE2=名画座
TTITLE3=泣かせて
TTITLE4=愛、どうじゃ。恋、どうじゃ。
TTITLE5=夜に蒼ざめて
TTITLE6=LAーLAーLA
TTITLE7=ひとりぽっちで踊らせて
TTITLE8=あばよ
TTITLE9=帰愁
TTITLE10=六本木レイン
TTITLE11=Lonly Way
TTITLE12=ボサノバ
TTITLE13=ふられた気分
TTITLE14=愚図
TTITLE15=かもめはかもめ
EXTD=YEAR: 1986
EXTT0=
EXTT1=
EXTT2=
EXTT3=
EXTT4=
EXTT5=
EXTT6=
EXTT7=
EXTT8=
EXTT9=
EXTT10=
EXTT11=
EXTT12=
EXTT13=
EXTT14=
EXTT15=
PLAYORDER=
